<svg width="119" height="119" viewBox="0 0 119 119" fill="none" xmlns="http://www.w3.org/2000/svg">
<g clip-path="url(#clip0_3_1482)">
<path d="M106.449 41.3246L96.9662 27.1004C96.1295 25.8453 94.526 25.2175 93.0615 25.7059C91.597 26.1242 90.5513 27.5187 90.5513 29.053C90.5513 35.8859 89.5052 42.7191 87.5531 49.3432C85.8796 44.532 82.6722 40.2787 78.2792 37.4197C70.5396 32.2599 68.448 22.1728 73.6078 14.4334L79.674 5.36895C80.371 4.32281 80.441 2.92828 79.8132 1.81289C79.2556 0.697033 78.07 0 76.7452 0C70.61 0 64.8225 1.18512 59.4535 3.34664C43.068 9.90094 31.2143 25.0783 30.0989 43.5556C28.983 40.5574 28.3557 37.35 28.3557 34.0728V20.4066C28.3557 18.8729 27.3096 17.4784 25.8453 17.06C24.3813 16.5719 22.7773 17.1997 21.9406 18.4545L17.2692 25.4969C8.62308 38.4661 4.09085 53.5268 4.09085 69.076C4.09039 96.6175 26.4728 119 54.0148 119H64.8922C92.4337 119 114.909 96.6175 114.909 69.076C114.909 59.1744 111.958 49.5521 106.449 41.3246Z" fill="#FE9923"/>
<path d="M62.4515 61.8941C61.8242 60.709 60.6386 60.1509 59.4533 60.1509C58.2682 60.1509 57.1521 60.709 56.455 61.8941C42.0216 86.9262 38.6748 90.1334 38.6748 98.2219C38.6748 109.657 48.0179 119 59.4531 119C70.8882 119 80.2313 109.657 80.2313 98.2219C80.2316 89.3664 74.305 82.4634 62.4515 61.8941Z" fill="#FEDB41"/>
<path d="M114.909 69.076C114.909 96.6175 92.4337 119 64.8922 119H59.4533V3.34664C64.8225 1.18512 70.6098 0 76.7452 0C78.07 0 79.2556 0.697033 79.8132 1.81289C80.441 2.92828 80.3713 4.32305 79.674 5.36895L73.6078 14.4334C68.448 22.173 70.5398 32.2602 78.2792 37.4197C82.672 40.2787 85.8796 44.532 87.5531 49.3432C89.5052 42.7191 90.5513 35.8859 90.5513 29.053C90.5513 27.5187 91.597 26.1242 93.0615 25.7059C94.526 25.2178 96.1295 25.8455 96.9662 27.1004L106.449 41.3246C111.958 49.5521 114.909 59.1744 114.909 69.076Z" fill="#FE8821"/>
<path d="M80.2316 98.2219C80.2316 109.657 70.8884 119 59.4533 119V60.1509C60.6384 60.1509 61.8242 60.709 62.4515 61.8941C74.305 82.4634 80.2316 89.3664 80.2316 98.2219Z" fill="#FCBF29"/>
</g>
<defs>
<clipPath id="clip0_3_1482">
<rect width="119" height="119" fill="white"/>
</clipPath>
</defs>
</svg>
