<svg width="250" height="44" viewBox="0 0 250 44" fill="none" xmlns="http://www.w3.org/2000/svg">
<path d="M35.3244 8.77289V36.8466C35.3244 37.2443 35.225 37.5857 35.0234 37.8625C34.8245 38.142 34.5316 38.2817 34.1473 38.2817C33.8758 38.2817 33.6125 38.2172 33.3545 38.0909L22.1959 32.5143C21.86 32.3558 21.5751 32.087 21.344 31.7134C21.1156 31.3372 21 30.9663 21 30.6008V3.31724C21 2.99743 21.0806 2.72599 21.2392 2.50293C21.4004 2.27987 21.6316 2.16699 21.9353 2.16699C22.1583 2.16699 22.5104 2.28793 22.9914 2.52712L35.2545 8.65463C35.3002 8.70032 35.3244 8.74064 35.3244 8.77289V8.77289Z" fill="#FF6100"/>
<path d="M36.8616 11.1914L49.6756 31.9148L36.8616 25.5508V11.1914ZM64 11.6214V36.8463C64 37.2441 63.8871 37.5693 63.6641 37.8165C63.441 38.0638 63.1373 38.1874 62.753 38.1874C62.3687 38.1874 61.9925 38.0826 61.6243 37.8757L51.0409 32.6108L64 11.6214Z" fill="#F5C9B0"/>
<path d="M63.9277 8.74833C63.9277 8.79671 61.8771 12.1427 57.7733 18.7889C53.6695 25.4351 51.2669 29.3239 50.5627 30.4553L41.2048 15.2817L48.9798 2.66919C49.2512 2.22306 49.6678 2 50.2268 2C50.4499 2 50.6595 2.04838 50.8503 2.14244L63.831 8.60321C63.8955 8.63814 63.9277 8.68383 63.9277 8.74833V8.74833Z" fill="#FF6100"/>
<path d="M73.8788 38H77.7988V25.288L83.0628 38H86.0308L91.2668 25.288V38H95.1868V18.456H90.7628L84.5468 32.988L78.3308 18.456H73.8788V38ZM96.9344 30.188C96.9344 35.032 100.07 38.252 103.99 38.252C106.454 38.252 108.218 37.076 109.142 35.732V38H113.09V22.488H109.142V24.7C108.218 23.412 106.51 22.236 104.018 22.236C100.07 22.236 96.9344 25.344 96.9344 30.188ZM109.142 30.244C109.142 33.184 107.182 34.808 105.026 34.808C102.926 34.808 100.938 33.128 100.938 30.188C100.938 27.248 102.926 25.68 105.026 25.68C107.182 25.68 109.142 27.304 109.142 30.244ZM127.839 33.576C127.727 27.892 119.131 29.656 119.131 26.828C119.131 25.932 119.887 25.344 121.343 25.344C122.883 25.344 123.835 26.156 123.947 27.36H127.699C127.475 24.28 125.207 22.236 121.455 22.236C117.619 22.236 115.323 24.308 115.323 26.884C115.323 32.568 124.087 30.804 124.087 33.576C124.087 34.472 123.247 35.172 121.707 35.172C120.139 35.172 119.047 34.276 118.907 33.1H114.959C115.127 35.984 117.843 38.252 121.735 38.252C125.515 38.252 127.839 36.236 127.839 33.576ZM151.637 38H155.557V28.9C155.557 24.616 152.925 22.264 149.201 22.264C146.933 22.264 144.889 23.468 143.881 25.232C142.817 23.3 140.829 22.264 138.421 22.264C136.489 22.264 134.837 23.076 133.857 24.364V22.488H129.937V38H133.857V29.432C133.857 26.968 135.229 25.68 137.357 25.68C139.429 25.68 140.801 26.968 140.801 29.432V38H144.721V29.432C144.721 26.968 146.093 25.68 148.193 25.68C150.265 25.68 151.637 26.968 151.637 29.432V38ZM157.149 30.188C157.149 35.032 160.285 38.252 164.205 38.252C166.669 38.252 168.433 37.076 169.357 35.732V38H173.305V22.488H169.357V24.7C168.433 23.412 166.725 22.236 164.233 22.236C160.285 22.236 157.149 25.344 157.149 30.188ZM169.357 30.244C169.357 33.184 167.397 34.808 165.241 34.808C163.141 34.808 161.153 33.128 161.153 30.188C161.153 27.248 163.141 25.68 165.241 25.68C167.397 25.68 169.357 27.304 169.357 30.244ZM188.053 33.576C187.941 27.892 179.345 29.656 179.345 26.828C179.345 25.932 180.101 25.344 181.557 25.344C183.097 25.344 184.049 26.156 184.161 27.36H187.913C187.689 24.28 185.421 22.236 181.669 22.236C177.833 22.236 175.537 24.308 175.537 26.884C175.537 32.568 184.301 30.804 184.301 33.576C184.301 34.472 183.461 35.172 181.921 35.172C180.353 35.172 179.261 34.276 179.121 33.1H175.173C175.341 35.984 178.057 38.252 181.949 38.252C185.729 38.252 188.053 36.236 188.053 33.576ZM202.443 38H206.363V18.456H202.443V26.492H194.071V18.456H190.151V38H194.071V29.684H202.443V38ZM223.745 22.488H219.797V31.028C219.797 33.52 218.453 34.864 216.325 34.864C214.253 34.864 212.881 33.52 212.881 31.028V22.488H208.961V31.588C208.961 35.844 211.565 38.196 215.177 38.196C217.109 38.196 218.817 37.356 219.797 36.04V38H223.745V22.488ZM230.413 24.756V17.28H226.493V38H230.413V35.788C231.365 37.132 233.101 38.252 235.537 38.252C239.513 38.252 242.621 35.032 242.621 30.188C242.621 25.344 239.513 22.236 235.537 22.236C233.185 22.236 231.365 23.328 230.413 24.756ZM238.617 30.188C238.617 33.128 236.629 34.808 234.501 34.808C232.401 34.808 230.413 33.184 230.413 30.244C230.413 27.304 232.401 25.68 234.501 25.68C236.629 25.68 238.617 27.248 238.617 30.188Z" fill="black"/>
</svg>
