<svg width="280" height="186" viewBox="0 0 280 186" fill="none" xmlns="http://www.w3.org/2000/svg">
<path d="M216.405 180.008C156.159 177.882 -39.2756 188.083 -101.688 185.48C-164.101 182.878 -188.481 111.919 -145.059 82.3734C-101.636 52.8281 -73.8196 73.3003 -73.8196 73.3003C-73.8196 73.3003 -84.1244 20.5582 -48.9125 4.70025C-13.7072 -11.1552 31.955 13.9931 39.0262 74.9257C39.0262 74.9257 37.8438 56.2039 64.3894 44.9274C90.935 33.6509 136.126 45.6881 165.986 76.5545C195.846 107.421 188.198 129.038 180.307 136.629C180.307 136.629 231.495 131.591 263.749 145.99C296.004 160.389 276.65 182.134 216.405 180.008Z" fill="#FFB287" fill-opacity="0.3"/>
</svg>
