<svg width="119" height="119" viewBox="0 0 119 119" fill="none" xmlns="http://www.w3.org/2000/svg">
<g clip-path="url(#clip0_3_1527)">
<path d="M71.5447 115.514C72.9592 115.514 74.0455 114.261 73.8456 112.861L62.9513 36.6015C62.7059 34.8839 61.2351 33.6082 59.5001 33.6082C57.7651 33.6082 56.2943 34.8839 56.0489 36.6015L45.1546 112.861C44.9544 114.261 46.041 115.514 47.4553 115.514H71.5447Z" fill="#F5894E"/>
<path d="M73.8455 112.861L62.9512 36.6015C62.7058 34.8842 61.2353 33.6084 59.5005 33.6082V115.514H71.5446C72.9591 115.514 74.0454 114.261 73.8455 112.861Z" fill="#CC6D3D"/>
<path d="M96.0194 1.56629C95.3658 0.566412 94.2193 0 93.0249 0H76.3042C69.0724 0 63.0002 3.77569 59.5006 8.91919C55.978 3.74153 49.8753 0 42.696 0H25.9753C24.7809 0 23.6342 0.566412 22.9806 1.56629C22.0558 2.98058 22.2757 4.80067 23.4266 5.95163L57.0348 39.5598C58.3963 40.9214 60.6036 40.9214 61.9652 39.5598L95.5734 5.95163C96.7243 4.80067 96.9442 2.98058 96.0194 1.56629Z" fill="#C8FF50"/>
<path d="M95.5735 5.95139C96.7245 4.80044 96.9441 2.98035 96.0195 1.56606C95.3657 0.566412 94.2192 0 93.0248 0H76.3041C69.0723 0 63.0001 3.77569 59.5005 8.91919V40.5809C60.3925 40.5809 61.2846 40.2404 61.9653 39.5598L95.5735 5.95139Z" fill="#87E752"/>
<path d="M85.6398 119H33.3602C31.4348 119 29.8739 117.439 29.8739 115.514C29.8739 113.588 31.4348 112.027 33.3602 112.027H85.6398C87.5652 112.027 89.1261 113.588 89.1261 115.514C89.1261 117.439 87.5652 119 85.6398 119Z" fill="#C8FF50"/>
<path d="M117.981 34.6317C117.981 34.6317 114.395 31.0382 109.779 26.4219C97.4445 14.1177 77.5671 14.1196 65.2316 26.4249C62.975 28.6815 60.9655 30.6926 59.5 32.1599C58.0342 30.6922 56.0239 28.6801 53.7655 26.4219C41.4311 14.1177 21.5535 14.1196 9.21789 26.4251C4.60455 31.0382 1.01851 34.632 1.01851 34.632C0.0228161 35.6295 -0.273987 37.1286 0.266162 38.4304C0.80631 39.7322 2.07696 40.5808 3.48637 40.5808H115.514C116.923 40.5808 118.194 39.7322 118.734 38.4304C119.274 37.1284 118.977 35.6295 117.981 34.6317Z" fill="#87E752"/>
<path d="M118.734 38.4304C119.274 37.1284 118.977 35.6295 117.982 34.632C117.982 34.632 114.396 31.0385 109.779 26.4221C97.4448 14.1179 77.5674 14.1198 65.2318 26.4252C62.9754 28.6815 60.9662 30.6924 59.5007 32.1597V40.5808H115.514C116.923 40.5808 118.194 39.7322 118.734 38.4304Z" fill="#4EC95F"/>
<path d="M89.1261 115.514C89.1261 113.588 87.5652 112.027 85.6398 112.027H59.5005V119H85.6398C87.5652 119 89.1261 117.439 89.1261 115.514Z" fill="#87E752"/>
<path d="M76.3041 33.6082H42.6959C31.6438 33.6082 22.4055 42.5559 22.4055 53.8986V70.7027C22.4055 72.1128 23.255 73.3841 24.5577 73.9236C24.9891 74.1023 25.4421 74.189 25.8911 74.189C26.7985 74.189 27.6903 73.8348 28.3571 73.1678L59.5 42.0248L90.6432 73.168C91.3102 73.835 92.2018 74.1892 93.1092 74.1892C93.5582 74.1892 94.0112 74.1023 94.4426 73.9238C95.7453 73.3841 96.5948 72.1128 96.5948 70.7029V53.8988C96.5946 42.565 87.3656 33.6082 76.3041 33.6082Z" fill="#4EC95F"/>
<path d="M93.1092 74.1893C93.5582 74.1893 94.0112 74.1023 94.4426 73.9238C95.7453 73.3842 96.5948 72.1128 96.5948 70.7029V53.8988C96.5948 42.5652 87.3658 33.6084 76.3044 33.6084H59.5007V42.0256L90.6434 73.1682C91.31 73.8351 92.2016 74.1893 93.1092 74.1893Z" fill="#14AA6B"/>
</g>
<defs>
<clipPath id="clip0_3_1527">
<rect width="119" height="119" fill="white"/>
</clipPath>
</defs>
</svg>
