<svg width="131" height="18" viewBox="0 0 131 18" fill="none" xmlns="http://www.w3.org/2000/svg">
<mask id="mask0_3_834" style="mask-type:alpha" maskUnits="userSpaceOnUse" x="42" y="1" width="9" height="16">
<path d="M47.4986 17V9.70218H49.995L50.3695 6.85725H47.4986V5.04118C47.4986 4.21776 47.7308 3.65661 48.936 3.65661L50.4706 3.65599V1.11138C50.2052 1.07756 49.2942 1 48.2339 1C46.0198 1 44.504 2.32557 44.504 4.75942V6.85725H42V9.70218H44.504V17H47.4986Z" fill="white"/>
</mask>
<g mask="url(#mask0_3_834)">
<path d="M47.4986 17V9.70218H49.995L50.3695 6.85725H47.4986V5.04118C47.4986 4.21776 47.7308 3.65661 48.936 3.65661L50.4706 3.65599V1.11138C50.2052 1.07756 49.2942 1 48.2339 1C46.0198 1 44.504 2.32557 44.504 4.75942V6.85725H42V9.70218H44.504V17H47.4986Z" fill="#FF6100"/>
</g>
<mask id="mask1_3_834" style="mask-type:alpha" maskUnits="userSpaceOnUse" x="0" y="2" width="17" height="14">
<path d="M17 3.63381C16.3743 3.91106 15.7029 4.09908 14.9975 4.18303C15.7178 3.75172 16.2691 3.06761 16.5304 2.25494C15.8548 2.65436 15.1091 2.94439 14.3144 3.10161C13.6781 2.42281 12.7731 2 11.7692 2C9.84322 2 8.28164 3.56158 8.28164 5.48647C8.28164 5.75947 8.31244 6.02611 8.37194 6.28108C5.474 6.13553 2.90431 4.74711 1.18444 2.63736C0.883806 3.15153 0.712778 3.75064 0.712778 4.39017C0.712778 5.60014 1.32892 6.66775 2.26375 7.29236C1.69222 7.27325 1.15469 7.11603 0.684111 6.85469V6.89825C0.684111 8.58731 1.88664 9.99697 3.48114 10.3178C3.189 10.3964 2.88094 10.44 2.56225 10.44C2.33706 10.44 2.11928 10.4177 1.90575 10.3752C2.34978 11.7615 3.63731 12.7696 5.16278 12.7972C3.96981 13.7321 2.46558 14.2876 0.831778 14.2876C0.550278 14.2876 0.273 14.2706 0 14.2398C1.54353 15.231 3.376 15.8089 5.3455 15.8089C11.7607 15.8089 15.2674 10.4952 15.2674 5.88697L15.2557 5.4355C15.9409 4.94681 16.5336 4.33281 17 3.63381Z" fill="white"/>
</mask>
<g mask="url(#mask1_3_834)">
<path d="M17 3.63381C16.3743 3.91106 15.7029 4.09908 14.9975 4.18303C15.7178 3.75172 16.2691 3.06761 16.5304 2.25494C15.8548 2.65436 15.1091 2.94439 14.3144 3.10161C13.6781 2.42281 12.7731 2 11.7692 2C9.84322 2 8.28164 3.56158 8.28164 5.48647C8.28164 5.75947 8.31244 6.02611 8.37194 6.28108C5.474 6.13553 2.90431 4.74711 1.18444 2.63736C0.883806 3.15153 0.712778 3.75064 0.712778 4.39017C0.712778 5.60014 1.32892 6.66775 2.26375 7.29236C1.69222 7.27325 1.15469 7.11603 0.684111 6.85469V6.89825C0.684111 8.58731 1.88664 9.99697 3.48114 10.3178C3.189 10.3964 2.88094 10.44 2.56225 10.44C2.33706 10.44 2.11928 10.4177 1.90575 10.3752C2.34978 11.7615 3.63731 12.7696 5.16278 12.7972C3.96981 13.7321 2.46558 14.2876 0.831778 14.2876C0.550278 14.2876 0.273 14.2706 0 14.2398C1.54353 15.231 3.376 15.8089 5.3455 15.8089C11.7607 15.8089 15.2674 10.4952 15.2674 5.88697L15.2557 5.4355C15.9409 4.94681 16.5336 4.33281 17 3.63381Z" fill="#FF6100"/>
</g>
<mask id="mask2_3_834" style="mask-type:alpha" maskUnits="userSpaceOnUse" x="77" y="2" width="14" height="14">
<path d="M84 7.6V10.4H87.9606C87.3824 12.0296 85.8256 13.2 84 13.2C81.6844 13.2 79.8 11.3156 79.8 9C79.8 6.6844 81.6844 4.8 84 4.8C85.0038 4.8 85.9698 5.1598 86.7202 5.8136L88.5598 3.7024C87.2998 2.6048 85.6814 2 84 2C80.1402 2 77 5.1402 77 9C77 12.8598 80.1402 16 84 16C87.8598 16 91 12.8598 91 9V7.6H84Z" fill="white"/>
</mask>
<g mask="url(#mask2_3_834)">
<path d="M84 7.6V10.4H87.9606C87.3824 12.0296 85.8256 13.2 84 13.2C81.6844 13.2 79.8 11.3156 79.8 9C79.8 6.6844 81.6844 4.8 84 4.8C85.0038 4.8 85.9698 5.1598 86.7202 5.8136L88.5598 3.7024C87.2998 2.6048 85.6814 2 84 2C80.1402 2 77 5.1402 77 9C77 12.8598 80.1402 16 84 16C87.8598 16 91 12.8598 91 9V7.6H84Z" fill="#FF6100"/>
</g>
<mask id="mask3_3_834" style="mask-type:alpha" maskUnits="userSpaceOnUse" x="113" y="0" width="18" height="18">
<path d="M126.033 0H117.967C115.228 0 113 2.22841 113 4.96735V13.0327C113 15.7717 115.228 18 117.967 18H126.033C128.772 18 131 15.7716 131 13.0327V4.96735C131 2.22841 128.772 0 126.033 0ZM129.403 13.0327C129.403 14.8911 127.891 16.403 126.033 16.403H117.967C116.109 16.4031 114.597 14.8911 114.597 13.0327V4.96735C114.597 3.10903 116.109 1.59705 117.967 1.59705H126.033C127.891 1.59705 129.403 3.10903 129.403 4.96735V13.0327H129.403ZM122 4.28571C119.401 4.28571 117.286 6.40055 117.286 9.00011C117.286 11.5996 119.401 13.7143 122 13.7143C124.599 13.7143 126.714 11.5996 126.714 9.00011C126.714 6.40055 124.599 4.28571 122 4.28571ZM122 12.0909C120.296 12.0909 118.909 10.7044 118.909 9C118.909 7.29553 120.296 5.90891 122 5.90891C123.704 5.90891 125.091 7.29553 125.091 9C125.091 10.7044 123.704 12.0909 122 12.0909ZM127.143 2.57143C126.805 2.57143 126.473 2.70818 126.235 2.94779C125.995 3.18623 125.857 3.51818 125.857 3.85714C125.857 4.19505 125.995 4.52688 126.235 4.76649C126.473 5.00493 126.805 5.14286 127.143 5.14286C127.482 5.14286 127.813 5.00493 128.052 4.76649C128.292 4.52688 128.429 4.19494 128.429 3.85714C128.429 3.51818 128.292 3.18623 128.052 2.94779C127.814 2.70818 127.482 2.57143 127.143 2.57143Z" fill="white"/>
</mask>
<g mask="url(#mask3_3_834)">
<path d="M126.033 0H117.967C115.228 0 113 2.22841 113 4.96735V13.0327C113 15.7717 115.228 18 117.967 18H126.033C128.772 18 131 15.7716 131 13.0327V4.96735C131 2.22841 128.772 0 126.033 0ZM129.403 13.0327C129.403 14.8911 127.891 16.403 126.033 16.403H117.967C116.109 16.4031 114.597 14.8911 114.597 13.0327V4.96735C114.597 3.10903 116.109 1.59705 117.967 1.59705H126.033C127.891 1.59705 129.403 3.10903 129.403 4.96735V13.0327H129.403ZM122 4.28571C119.401 4.28571 117.286 6.40055 117.286 9.00011C117.286 11.5996 119.401 13.7143 122 13.7143C124.599 13.7143 126.714 11.5996 126.714 9.00011C126.714 6.40055 124.599 4.28571 122 4.28571ZM122 12.0909C120.296 12.0909 118.909 10.7044 118.909 9C118.909 7.29553 120.296 5.90891 122 5.90891C123.704 5.90891 125.091 7.29553 125.091 9C125.091 10.7044 123.704 12.0909 122 12.0909ZM127.143 2.57143C126.805 2.57143 126.473 2.70818 126.235 2.94779C125.995 3.18623 125.857 3.51818 125.857 3.85714C125.857 4.19505 125.995 4.52688 126.235 4.76649C126.473 5.00493 126.805 5.14286 127.143 5.14286C127.482 5.14286 127.813 5.00493 128.052 4.76649C128.292 4.52688 128.429 4.19494 128.429 3.85714C128.429 3.51818 128.292 3.18623 128.052 2.94779C127.814 2.70818 127.482 2.57143 127.143 2.57143Z" fill="#FF6100"/>
</g>
</svg>
