<svg width="119" height="119" viewBox="0 0 119 119" fill="none" xmlns="http://www.w3.org/2000/svg">
<g clip-path="url(#clip0_3_1539)">
<path d="M86.9841 64.1261C85.6453 63.5261 84.0884 63.7592 82.9876 64.7409L62.3659 83.1016C61.4338 83.9297 60.9776 85.1693 61.1561 86.4089L64.4782 109.599C64.6765 110.992 65.7326 112.068 67.0664 112.514L68.1672 112.688C69.1936 112.688 70.2298 112.262 70.9587 111.528C82.705 99.7765 89.1756 84.1528 89.1756 67.5226C89.1806 66.0549 88.3228 64.7261 86.9841 64.1261Z" fill="#992C29"/>
<path d="M51.4824 29.8195C34.8522 29.8195 19.2235 36.2901 7.47719 48.0364L7.30365 48.2049C6.30702 49.2016 5.95994 50.6742 6.40619 52.008C6.85244 53.3467 8.01269 54.3136 9.40598 54.5119L32.5961 57.834L33.1217 57.8737C34.1729 57.8737 35.1893 57.4274 35.8984 56.6292L54.2591 36.0075C55.2359 34.9117 55.4739 33.3498 54.8739 32.011C54.2739 30.6772 52.9451 29.8195 51.4824 29.8195Z" fill="#2196F3"/>
<path d="M58.8951 94.957C57.9431 94.957 56.9911 94.5901 56.2672 93.8662L25.1338 62.7328C23.7405 61.3395 23.676 59.0984 24.99 57.6257L48.3239 31.4904C64.85 12.1479 91.6796 -0.485916 115.356 0.0198341C117.339 0.0644591 118.94 1.666 118.985 3.64933C119.531 27.1915 106.862 54.15 87.4551 70.7306L61.3792 94.01C60.6652 94.6447 59.7826 94.957 58.8951 94.957Z" fill="#F6BE4A"/>
<path d="M84.9511 46.4397C81.7728 46.4397 78.5995 45.2299 76.1848 42.8152C71.3554 37.9808 71.3554 30.1169 76.1848 25.2825C81.0192 20.4481 88.8831 20.4481 93.7175 25.2825C98.5469 30.1169 98.5469 37.9808 93.7175 42.8152C91.2978 45.2349 88.1245 46.4397 84.9511 46.4397Z" fill="#D09435"/>
<path d="M3.71874 119C2.74691 119 1.79491 118.618 1.09083 117.909C0.123952 116.942 -0.233048 115.524 0.158661 114.21C1.4032 110.04 7.89366 88.9774 12.9611 83.9149C18.8764 78.0046 29.1798 78.0046 35.0852 83.9149C38.0403 86.8751 39.6667 90.7971 39.6667 94.9819C39.6667 99.1618 38.0403 103.089 35.0852 106.044C30.0227 111.106 8.95474 117.597 4.78974 118.846L3.71874 119Z" fill="#FE8821"/>
<path d="M49.7668 29.8392C33.7811 30.2706 18.8219 36.6916 7.47223 48.0363L7.30365 48.2049C6.30702 49.2015 5.95994 50.6742 6.40619 52.0079C6.85244 53.3467 8.01269 54.3136 9.40598 54.5119L25.6842 56.8473L48.3239 31.4854C48.795 30.935 49.2759 30.3847 49.7668 29.8392Z" fill="#C94039"/>
<path d="M113.972 0C91.3226 0 66.0549 11.7959 49.7668 29.8393C49.2759 30.3847 48.795 30.9301 48.319 31.4854L25.6842 56.8473L24.99 57.6258C23.676 59.0984 23.7405 61.3395 25.1338 62.7328L40.703 78.302L76.1848 42.8202C71.3554 37.9858 71.3554 30.1219 76.1848 25.2875C78.5995 22.8728 81.7778 21.663 84.9511 21.663C88.1245 21.663 91.3027 22.8728 93.7175 25.2875L117.899 1.10571C117.245 0.451208 116.347 0.0396667 115.356 0.014875C114.895 0.00495833 114.433 0 113.972 0V0Z" fill="#FEED7F"/>
<path d="M84.9511 21.663C81.7778 21.663 78.5995 22.8728 76.1848 25.2875C71.3554 30.1219 71.3554 37.9858 76.1848 42.8202L93.7125 25.2875C91.2978 22.8678 88.1245 21.663 84.9511 21.663Z" fill="#F6BE4A"/>
<path d="M24.0231 79.4822C19.9672 79.4822 15.9163 80.9598 12.9561 83.9149C7.89368 88.9774 1.40322 110.045 0.153717 114.21C-0.237992 115.519 0.119009 116.942 1.08588 117.909L35.0802 83.9149C32.13 80.9598 28.0791 79.4822 24.0231 79.4822Z" fill="#FE9923"/>
</g>
<defs>
<clipPath id="clip0_3_1539">
<rect width="119" height="119" fill="white"/>
</clipPath>
</defs>
</svg>
