<svg width="635" height="781" viewBox="0 0 635 781" fill="none" xmlns="http://www.w3.org/2000/svg">
<path d="M391.342 217.45C391.342 217.45 443.707 163.65 399.522 101.93C355.337 40.2095 265.343 -18.3305 152.436 5.39953C39.5276 29.1295 44.4395 173.14 50.985 192.13C50.985 192.13 10.0779 150.99 -40.6525 204.79C-91.3727 258.59 5.1662 385.19 5.1662 385.19C5.1662 385.19 -58.645 351.96 -66.8346 375.7C-75.0139 399.44 222.792 601.99 280.058 632.049C280.058 632.049 253.876 584.58 306.24 617.81C358.604 651.039 352.059 671.609 432.239 700.099C512.419 728.589 615.504 780.799 631.862 780.799C648.221 780.799 586.043 714.34 550.048 689.02C514.053 663.7 496.05 655.789 496.05 655.789C496.05 655.789 561.505 587.75 505.863 537.109C450.231 486.469 430.595 516.539 430.595 516.539C430.595 516.539 543.503 369.38 378.231 359.88C378.231 359.88 451.265 351.63 440.408 282.34C432.249 230.1 391.342 217.45 391.342 217.45Z" fill="#F5C9B0" fill-opacity="0.3"/>
</svg>
